<svg xmlns="http://www.w3.org/2000/svg" xmlns:xlink="http://www.w3.org/1999/xlink" width="947.49" height="474.094" viewBox="0 0 947.49 474.094"><defs><style>.a{fill:none;}.b{fill:#e2e2e2;}.aa,.b,.z{opacity:0.4;}.c{fill:url(#a);}.d,.l{mix-blend-mode:multiply;}.d,.l,.m{isolation:isolate;}.d{fill:url(#b);}.e{fill:url(#c);}.aa,.f{fill:#303030;}.g{fill:url(#d);}.h{clip-path:url(#e);}.i{fill:#fff;}.j{fill:url(#f);}.k{fill:url(#g);}.l{fill:url(#h);}.m{opacity:0.7;mix-blend-mode:overlay;}.n{fill:url(#i);}.o{fill:url(#u);}.p{fill:url(#w);}.q{fill:url(#ad);}.r{fill:url(#ae);}.s{fill:url(#ai);}.t{fill:url(#ap);}.u{fill:url(#aw);}.v{fill:url(#ax);}.w{fill:url(#bi);}.x{fill:url(#br);}.y{fill:#e0e0e0;}.ab{fill:#c4771d;}.ac{fill:#ffbf9d;}.ad{fill:#ff9a6c;}.ae{fill:#444443;}.af{fill:#70813f;}.ag{fill:#637033;}.ah{fill:#535e26;}.ai{fill:#f5f5f5;}</style><linearGradient id="a" x1="0.505" y1="1.222" x2="0.483" y2="0.189" gradientUnits="objectBoundingBox"><stop offset="0" stop-color="#eef4fb"/><stop offset="0.311" stop-color="#e3edf8"/><stop offset="1" stop-color="#cfe1f3"/></linearGradient><linearGradient id="b" x1="0.515" y1="-0.068" x2="0.504" y2="0.693" gradientUnits="objectBoundingBox"><stop offset="0" stop-color="#babcbe"/><stop offset="0.968" stop-color="#eff0f0" stop-opacity="0"/></linearGradient><linearGradient id="c" x1="2.477" y1="0.5" x2="2.48" y2="0.5" gradientUnits="objectBoundingBox"><stop offset="0" stop-color="#eef4fb"/><stop offset="0.461" stop-color="#dee2e6"/><stop offset="1" stop-color="#cfd1d2"/></linearGradient><linearGradient id="d" y1="0.5" x2="1" y2="0.5" gradientUnits="objectBoundingBox"><stop offset="0" stop-color="#f4f4f4"/><stop offset="1" stop-color="#e4e5e6"/></linearGradient><clipPath id="e"><path class="a" d="M238.174,311.936l.574-218.516H625.025l-.574,218.516Z" transform="translate(-238.174 -93.42)"/></clipPath><linearGradient id="f" x1="0.5" x2="0.5" y2="1" gradientUnits="objectBoundingBox"><stop offset="0" stop-color="#eef4fb"/><stop offset="0.618" stop-color="#cbced2"/><stop offset="1" stop-color="#babcbe"/></linearGradient><linearGradient id="g" x1="0.5" y1="1" x2="0.5" y2="0" xlink:href="#a"/><linearGradient id="h" x1="0.501" y1="-2.855" x2="0.499" y2="2.966" gradientUnits="objectBoundingBox"><stop offset="0" stop-color="#babcbe"/><stop offset="0.968" stop-color="#cfd1d2" stop-opacity="0"/></linearGradient><linearGradient id="i" x1="0.5" x2="0.5" y2="1" gradientUnits="objectBoundingBox"><stop offset="0" stop-color="#fff"/><stop offset="1" stop-color="#fff" stop-opacity="0"/></linearGradient><linearGradient id="u" x1="0.5" y1="0" x2="0.5" y2="1" xlink:href="#i"/><linearGradient id="w" x1="0.5" y1="0" x2="0.5" y2="1" xlink:href="#i"/><linearGradient id="ad" x1="0.5" y1="0" x2="0.5" y2="1" xlink:href="#i"/><linearGradient id="ae" x1="0.5" y1="0" x2="0.5" y2="1" xlink:href="#i"/><linearGradient id="ai" x1="0.5" y1="0" x2="0.5" y2="1" xlink:href="#i"/><linearGradient id="ap" x1="0.5" y1="0" x2="0.5" y2="1" xlink:href="#i"/><linearGradient id="aw" x1="0.5" y1="0" x2="0.5" y2="1" xlink:href="#i"/><linearGradient id="ax" x1="0.5" y1="0" x2="0.5" y2="1" xlink:href="#i"/><linearGradient id="bi" x1="0.5" y1="0" x2="0.5" y2="1" xlink:href="#i"/><linearGradient id="br" x1="0.5" y1="0" x2="0.5" y2="1" xlink:href="#i"/></defs><g transform="translate(-951 -1125)"><g transform="translate(881.048 1056.861)"><path class="b" d="M949.169,222.854H780.309q2.377,0,4.691-.206c-22.837-2-40.651-18.462-40.651-38.472h0c0-20.012,17.814-36.471,40.651-38.474-1.541-.135-3.106-.206-4.691-.206,25.043,0,45.342-17.316,45.342-38.678h0c0-21.362-20.3-38.678-45.342-38.678H198.682c-25.041,0-45.342,17.316-45.342,38.678h0c0,21.362,20.3,38.678,45.342,38.678h-11.57c25.041,0,45.342,17.318,45.342,38.68h0c0,21.361-20.3,38.678-45.342,38.678H138.225c-37.707,0-68.273,26.075-68.273,58.24h0c0,32.165,30.566,58.24,68.273,58.24h48.891c25.039,0,45.338,17.318,45.338,38.678h0c0,21.361-20.3,38.678-45.342,38.678h11.57c-25.041,0-45.342,17.316-45.342,38.678h0c0,21.362,20.3,38.678,45.342,38.678H780.309c25.043,0,45.342-17.316,45.342-38.678h0c0-21.362-20.3-38.678-45.342-38.678,1.585,0,3.15-.072,4.691-.206-22.837-2-40.651-18.462-40.651-38.472h0c0-20.01,17.814-36.47,40.651-38.472q-2.31-.2-4.686-.206H949.169c37.705,0,68.273-26.075,68.273-58.24h0C1017.442,248.929,986.875,222.854,949.169,222.854Z"/><g transform="translate(285.335 89.159)"><g transform="translate(5.993)"><path class="c" d="M463.214,343.516H327.844l13.01-49.019H450.2Z" transform="translate(-187.59 1.895)"/><path class="d" d="M463.214,343.516H327.844l13.01-49.019H450.2Z" transform="translate(-187.59 1.895)"/><path class="e" d="M505.478,334.93H304.423l5.944-13.614H499.534Z" transform="translate(-197.012 12.683)"/><path class="f" d="M631.931,386.8H238.8a10.993,10.993,0,0,1-10.973-10.989l.739-281.692a11.062,11.062,0,0,1,11.032-10.988H632.729A10.991,10.991,0,0,1,643.7,94.117l-.739,281.692A11.064,11.064,0,0,1,631.931,386.8Z" transform="translate(-227.824 -83.129)"/><path class="g" d="M632.151,316.154H239.017a10.993,10.993,0,0,1-10.973-10.989l.122-46.415H643.3l-.122,46.415A11.063,11.063,0,0,1,632.151,316.154Z" transform="translate(-227.735 -12.485)"/><g transform="translate(14.513 14.43)"><g class="h"><path class="i" d="M238.174,311.936l.574-218.516H625.025l-.574,218.516Z" transform="translate(-238.174 -93.42)"/></g></g></g><g transform="translate(0 334.149)"><path class="j" d="M648.256,356.07s-424.717-.007-424.706-.015l45.7-34.631H602.588l45.7,34.631C648.3,356.063,648.286,356.07,648.256,356.07Z" transform="translate(-223.55 -321.423)"/><path class="k" d="M648.256,346.135s-424.717-.007-424.706-.015v12.193H648.256l.034-12.193C648.3,346.128,648.286,346.135,648.256,346.135Z" transform="translate(-223.55 -311.489)"/><path class="l" d="M648.256,346.135s-424.717-.007-424.706-.015v12.193H648.256l.034-12.193C648.3,346.128,648.286,346.135,648.256,346.135Z" transform="translate(-223.55 -311.489)"/><g class="m" transform="translate(23.334 3.1)"><path class="n" d="M276.933,326.285h-14c-.906,0-1.262-.314-.8-.7l1.531-1.27a4.476,4.476,0,0,1,2.427-.679h13.721c.888,0,1.282.3.878.679l-1.366,1.27A4.123,4.123,0,0,1,276.933,326.285Z" transform="translate(-231.445 -323.633)"/><path class="n" d="M293.025,326.285h-14c-.907,0-1.317-.314-.917-.7l1.315-1.27a3.9,3.9,0,0,1,2.311-.679h13.721c.888,0,1.334.3.994.679l-1.148,1.27A3.584,3.584,0,0,1,293.025,326.285Z" transform="translate(-225 -323.633)"/><path class="n" d="M309.116,326.285h-14c-.906,0-1.369-.314-1.036-.7l1.1-1.27a3.388,3.388,0,0,1,2.2-.679h13.72c.889,0,1.387.3,1.111.679l-.931,1.27A3.094,3.094,0,0,1,309.116,326.285Z" transform="translate(-218.557 -323.633)"/><path class="n" d="M325.211,326.285h-14c-.906,0-1.422-.314-1.155-.7l.882-1.27a2.919,2.919,0,0,1,2.08-.679h13.721c.888,0,1.436.3,1.226.679l-.715,1.27A2.652,2.652,0,0,1,325.211,326.285Z" transform="translate(-212.115 -323.633)"/><path class="n" d="M341.308,326.285h-14c-.907,0-1.477-.314-1.276-.7l.665-1.27a2.5,2.5,0,0,1,1.963-.679h13.721c.889,0,1.489.3,1.342.679l-.5,1.27C343.072,325.971,342.214,326.285,341.308,326.285Z" transform="translate(-205.676 -323.633)"/><path class="n" d="M357.408,326.285h-14c-.906,0-1.53-.314-1.394-.7l.447-1.27c.132-.376.959-.679,1.847-.679h13.721c.888,0,1.541.3,1.457.679l-.28,1.27C359.117,325.971,358.314,326.285,357.408,326.285Z" transform="translate(-199.239 -323.633)"/><path class="n" d="M373.509,326.285h-14c-.906,0-1.583-.314-1.513-.7l.23-1.27c.069-.376.844-.679,1.732-.679h13.721c.888,0,1.593.3,1.573.679l-.064,1.27C375.165,325.971,374.415,326.285,373.509,326.285Z" transform="translate(-192.805 -323.633)"/><path class="n" d="M389.613,326.285h-14c-.906,0-1.636-.314-1.632-.7l.014-1.27c0-.376.726-.679,1.614-.679h13.722c.888,0,1.643.3,1.69.679l.151,1.27C391.216,325.971,390.519,326.285,389.613,326.285Z" transform="translate(-186.373 -323.633)"/><path class="n" d="M405.778,326.285h-14c-.907,0-1.691-.314-1.753-.7l-.2-1.27c-.06-.376.611-.679,1.5-.679h13.722c.888,0,1.7.3,1.8.679l.369,1.27C407.327,325.971,406.684,326.285,405.778,326.285Z" transform="translate(-180.002 -323.633)"/><path class="n" d="M421.95,326.285h-14c-.906,0-1.744-.314-1.872-.7l-.421-1.27c-.123-.376.5-.679,1.384-.679H420.76c.889,0,1.749.3,1.921.679l.588,1.27C423.446,325.971,422.856,326.285,421.95,326.285Z" transform="translate(-173.638 -323.633)"/><path class="n" d="M438.123,326.285h-14a2.5,2.5,0,0,1-1.991-.7l-.637-1.27c-.188-.376.38-.679,1.268-.679h13.721a2.766,2.766,0,0,1,2.037.679l.8,1.27C439.565,325.971,439.029,326.285,438.123,326.285Z" transform="translate(-167.275 -323.633)"/><path class="n" d="M454.3,326.285h-14a2.926,2.926,0,0,1-2.11-.7l-.853-1.27c-.252-.376.264-.679,1.151-.679H452.2a3.21,3.21,0,0,1,2.152.679l1.021,1.27C455.686,325.971,455.2,326.285,454.3,326.285Z" transform="translate(-160.914 -323.633)"/><path class="o" d="M475.636,326.284H456.474a3.4,3.4,0,0,1-2.231-.7l-1.07-1.27c-.317-.376.147-.679,1.035-.679l18.776,0a3.835,3.835,0,0,1,2.3.679l1.286,1.27C476.959,325.969,476.542,326.283,475.636,326.284Z" transform="translate(-154.557 -323.634)"/><path class="o" d="M495.642,326.286H476.358a4.067,4.067,0,0,1-2.378-.7l-1.336-1.27c-.4-.376.006-.679.893-.679l18.9,0a4.52,4.52,0,0,1,2.439.68l1.554,1.27C496.9,325.973,496.548,326.286,495.642,326.286Z" transform="translate(-146.746 -323.634)"/><path class="p" d="M257.989,345.706h-16.7c-1.081,0-1.418-.447-.757-1l6.163-5.113a5.41,5.41,0,0,1,2.98-.92h15.958c1.032,0,1.429.411.882.92l-5.5,5.113A5.118,5.118,0,0,1,257.989,345.706Z" transform="translate(-240.19 -317.582)"/><path class="p" d="M277.184,345.706h-16.7c-1.081,0-1.495-.447-.928-1l5.291-5.113a4.676,4.676,0,0,1,2.823-.92h15.958c1.032,0,1.5.411,1.039.92l-4.622,5.113A4.4,4.4,0,0,1,277.184,345.706Z" transform="translate(-232.503 -317.582)"/><path class="p" d="M296.384,345.706h-16.7c-1.081,0-1.571-.447-1.1-1L283,339.6a4.015,4.015,0,0,1,2.666-.92h15.958c1.032,0,1.569.411,1.195.92l-3.748,5.113A3.746,3.746,0,0,1,296.384,345.706Z" transform="translate(-224.819 -317.582)"/><path class="p" d="M315.586,345.706h-16.7c-1.081,0-1.648-.447-1.268-1l3.546-5.113a3.422,3.422,0,0,1,2.507-.92h15.959c1.032,0,1.639.411,1.353.92l-2.877,5.113A3.168,3.168,0,0,1,315.586,345.706Z" transform="translate(-217.138 -317.582)"/><path class="p" d="M414.74,345.706H318.845c-1.484,0-2.516-.327-2.305-.726l2.943-5.631c.195-.372,1.5-.67,2.917-.67h91.618c1.416,0,2.6.3,2.646.67l.674,5.631C417.387,345.379,416.223,345.706,414.74,345.706Z" transform="translate(-209.489 -317.582)"/><path class="p" d="M411.887,345.706h-16.7c-1.081,0-2.029-.447-2.116-1l-.816-5.113c-.081-.509.69-.92,1.723-.92h15.958c1.032,0,1.988.411,2.137.92l1.486,5.113C413.715,345.259,412.969,345.706,411.887,345.706Z" transform="translate(-179.025 -317.582)"/><path class="p" d="M431.363,345.706h-16.7c-1.081,0-2.1-.447-2.286-1l-1.691-5.113c-.168-.509.534-.92,1.566-.92h15.959a2.727,2.727,0,0,1,2.294.92l2.359,5.113C433.115,345.259,432.444,345.706,431.363,345.706Z" transform="translate(-171.618 -317.582)"/><path class="q" d="M450.842,345.706h-16.7a2.974,2.974,0,0,1-2.455-1l-2.563-5.113c-.255-.509.377-.92,1.409-.92H446.49a3.228,3.228,0,0,1,2.451.92l3.231,5.113C452.518,345.259,451.923,345.706,450.842,345.706Z" transform="translate(-164.214 -317.582)"/><path class="r" d="M494.826,344.487H476.064a4.289,4.289,0,0,1-2.831-1l-.712-.811c-.473-.538.008-.973,1.07-.973h18.431a4.787,4.787,0,0,1,2.917.973l.829.811C496.326,344.04,495.907,344.487,494.826,344.487Z" transform="translate(-146.807 -316.364)"/><path class="r" d="M516.032,344.487H497.27a5.078,5.078,0,0,1-3.018-1l-.865-.811c-.573-.538-.174-.973.888-.973h18.431a5.624,5.624,0,0,1,3.1.973l.982.811C517.448,344.04,517.113,344.487,516.032,344.487Z" transform="translate(-138.446 -316.364)"/><path class="r" d="M473.623,344.487H454.861a3.593,3.593,0,0,1-2.645-1l-.56-.811c-.372-.538.191-.973,1.252-.973H471.34a4.03,4.03,0,0,1,2.733.973l.677.811C475.208,344.04,474.7,344.487,473.623,344.487Z" transform="translate(-155.173 -316.364)"/><path class="r" d="M491.462,341.306H473.225a4.148,4.148,0,0,1-2.727-.941l-.673-.767c-.447-.509.029-.92,1.063-.92h17.925a4.62,4.62,0,0,1,2.81.92l.782.767C492.933,340.882,492.514,341.306,491.462,341.306Z" transform="translate(-147.886 -317.582)"/><path class="s" d="M273.044,330.439H258.487c-.942,0-1.3-.339-.794-.757l3.2-2.65a4.629,4.629,0,0,1,2.521-.719H277.53c.914,0,1.31.321.882.719l-2.849,2.65A4.308,4.308,0,0,1,273.044,330.439Z" transform="translate(-233.241 -322.557)"/><path class="s" d="M289.773,330.439H275.216c-.942,0-1.355-.339-.924-.756l2.744-2.65a4.031,4.031,0,0,1,2.4-.719h14.119c.913,0,1.364.321,1,.719l-2.4,2.65A3.734,3.734,0,0,1,289.773,330.439Z" transform="translate(-226.541 -322.557)"/><path class="s" d="M306.5,330.437H291.947c-.942,0-1.412-.339-1.053-.757l2.291-2.65a3.49,3.49,0,0,1,2.276-.719H309.58c.914,0,1.419.321,1.127.719l-1.944,2.65A3.213,3.213,0,0,1,306.5,330.437Z" transform="translate(-219.843 -322.557)"/><path class="s" d="M323.235,330.439H308.678c-.942,0-1.47-.341-1.181-.757l1.838-2.65a3,3,0,0,1,2.154-.719h14.118c.914,0,1.475.321,1.251.719l-1.492,2.65A2.746,2.746,0,0,1,323.235,330.439Z" transform="translate(-213.147 -322.557)"/><path class="s" d="M339.971,330.437H325.414c-.942,0-1.528-.339-1.31-.757l1.385-2.65a2.565,2.565,0,0,1,2.03-.719h14.119c.914,0,1.528.321,1.373.719l-1.039,2.65C341.809,330.1,340.913,330.437,339.971,330.437Z" transform="translate(-206.454 -322.557)"/><path class="s" d="M356.709,330.437H342.152c-.942,0-1.587-.339-1.44-.757l.934-2.65c.14-.4.994-.719,1.908-.719h14.119c.913,0,1.583.321,1.495.719l-.588,2.65C358.49,330.1,357.65,330.437,356.709,330.437Z" transform="translate(-199.763 -322.557)"/><path class="s" d="M373.448,330.437H358.893c-.942,0-1.645-.339-1.569-.757l.481-2.65c.073-.4.871-.719,1.785-.719h14.119c.914,0,1.638.321,1.618.719l-.135,2.65C375.171,330.1,374.39,330.437,373.448,330.437Z" transform="translate(-193.075 -322.557)"/><path class="t" d="M390.192,330.437H375.635c-.942,0-1.7-.339-1.7-.756l.029-2.65c0-.4.749-.719,1.663-.719h14.119c.913,0,1.693.321,1.74.719l.318,2.65C391.858,330.1,391.134,330.437,390.192,330.437Z" transform="translate(-186.39 -322.557)"/><path class="s" d="M407.06,330.439H392.5c-.942,0-1.76-.341-1.827-.757l-.424-2.65c-.063-.4.625-.719,1.54-.719h14.119c.914,0,1.749.321,1.864.719l.771,2.65C408.667,330.1,408,330.439,407.06,330.439Z" transform="translate(-179.828 -322.557)"/><path class="s" d="M423.937,330.437H409.381c-.942,0-1.819-.339-1.956-.757l-.876-2.65c-.132-.4.5-.719,1.418-.719h14.118c.914,0,1.8.321,1.987.719l1.223,2.65C425.486,330.1,424.879,330.437,423.937,330.437Z" transform="translate(-173.278 -322.557)"/><path class="s" d="M440.818,330.439H426.261a2.592,2.592,0,0,1-2.085-.756l-1.328-2.65c-.2-.4.381-.719,1.294-.719h14.119a2.838,2.838,0,0,1,2.109.719l1.676,2.65C442.31,330.1,441.76,330.439,440.818,330.439Z" transform="translate(-166.731 -322.557)"/><path class="s" d="M457.7,330.439H443.145a3.04,3.04,0,0,1-2.214-.757l-1.781-2.65c-.268-.4.258-.719,1.171-.719h14.121a3.308,3.308,0,0,1,2.231.719l2.127,2.65C459.135,330.1,458.644,330.439,457.7,330.439Z" transform="translate(-160.186 -322.557)"/><path class="p" d="M479.95,330.435l-19.919,0a3.539,3.539,0,0,1-2.343-.757l-2.232-2.65c-.337-.4.135-.719,1.049-.719l19.32,0a3.969,3.969,0,0,1,2.382.718l2.683,2.652C481.311,330.1,480.892,330.435,479.95,330.435Z" transform="translate(-153.642 -322.558)"/><path class="s" d="M500.83,330.44l-20.047,0a4.234,4.234,0,0,1-2.5-.756l-2.79-2.652c-.418-.4-.015-.718.9-.718l19.444,0a4.7,4.7,0,0,1,2.535.719l3.242,2.65C502.121,330.1,501.772,330.44,500.83,330.44Z" transform="translate(-145.605 -322.558)"/><path class="u" d="M280.091,334.58l-25.719-.007c-1.346,0-2.115-.268-1.716-.6l3.982-3.3a6.517,6.517,0,0,1,3.043-.565l24.917.006c1.3,0,2.109.254,1.8.567l-3.276,3.305A5.9,5.9,0,0,1,280.091,334.58Z" transform="translate(-235.218 -321.031)"/><path class="v" d="M306.445,334.573l-25.73.007c-1.346,0-2.183-.269-1.871-.6l3.13-3.3a5.6,5.6,0,0,1,2.9-.567L309.8,330.1c1.3,0,2.175.252,1.946.565l-2.423,3.3A5.007,5.007,0,0,1,306.445,334.573Z" transform="translate(-224.667 -321.031)"/><path class="u" d="M321.1,334.573H305.94c-.982,0-1.521-.367-1.207-.819l1.99-2.872a3.131,3.131,0,0,1,2.26-.777h14.683c.951,0,1.526.346,1.283.777l-1.615,2.872A2.862,2.862,0,0,1,321.1,334.573Z" transform="translate(-214.263 -321.031)"/><path class="u" d="M338.522,334.573H323.366c-.982,0-1.585-.367-1.348-.819l1.5-2.872a2.666,2.666,0,0,1,2.127-.777h14.683c.951,0,1.585.346,1.416.777l-1.126,2.872C340.443,334.205,339.5,334.573,338.522,334.573Z" transform="translate(-207.295 -321.031)"/><path class="u" d="M355.951,334.573H340.794c-.98,0-1.646-.367-1.486-.819l1.01-2.872c.153-.43,1.045-.777,2-.777H357c.951,0,1.643.346,1.548.777l-.635,2.872C357.809,334.205,356.931,334.573,355.951,334.573Z" transform="translate(-200.329 -321.031)"/><path class="u" d="M373.384,334.573H358.227c-.982,0-1.709-.367-1.628-.819l.522-2.872c.078-.43.911-.777,1.862-.777h14.683c.949,0,1.7.346,1.681.777l-.146,2.872C375.179,334.205,374.364,334.573,373.384,334.573Z" transform="translate(-193.367 -321.031)"/><path class="u" d="M390.818,334.573H375.661c-.98,0-1.772-.367-1.767-.819l.031-2.872c.006-.43.78-.777,1.729-.777h14.684c.949,0,1.761.346,1.813.777l.345,2.872C392.55,334.205,391.8,334.573,390.818,334.573Z" transform="translate(-186.407 -321.031)"/><path class="u" d="M408.388,334.573H393.231c-.982,0-1.836-.367-1.907-.819l-.458-2.872c-.069-.43.646-.777,1.6-.777h14.683c.951,0,1.822.346,1.948.777l.834,2.872C410.057,334.205,409.368,334.573,408.388,334.573Z" transform="translate(-179.582 -321.031)"/><path class="u" d="M425.969,334.573H410.813c-.982,0-1.9-.367-2.047-.819l-.949-2.872c-.142-.43.515-.777,1.464-.777h14.683c.951,0,1.88.346,2.08.777l1.324,2.872C427.576,334.205,426.95,334.573,425.969,334.573Z" transform="translate(-172.769 -321.031)"/><path class="u" d="M443.553,334.573H428.4a2.7,2.7,0,0,1-2.186-.819l-1.439-2.872c-.216-.43.38-.777,1.331-.777h14.683a2.955,2.955,0,0,1,2.211.777l1.815,2.872C445.1,334.205,444.535,334.573,443.553,334.573Z" transform="translate(-165.959 -321.031)"/><path class="u" d="M461.141,334.573H445.984a3.178,3.178,0,0,1-2.328-.819l-1.928-2.872c-.289-.43.248-.777,1.2-.777H457.61a3.453,3.453,0,0,1,2.345.777l2.3,2.872C462.621,334.205,462.121,334.573,461.141,334.573Z" transform="translate(-159.152 -321.031)"/><path class="u" d="M478.336,334.562H463.18a3.694,3.694,0,0,1-2.462-.819l-2.408-2.87c-.36-.431.118-.777,1.069-.777h14.682a3.99,3.99,0,0,1,2.475.778l2.782,2.869C479.755,334.195,479.318,334.562,478.336,334.562Z" transform="translate(-152.498 -321.035)"/><path class="w" d="M507.048,334.577l-25.333-.014a5.975,5.975,0,0,1-3.042-.6l-3.343-3.3c-.316-.313.485-.566,1.789-.566l24.539.014a6.563,6.563,0,0,1,3.054.567l4.04,3.3C509.157,334.309,508.394,334.577,507.048,334.577Z" transform="translate(-145.631 -321.035)"/><path class="p" d="M289.706,339.068H248.454c-1.024,0-1.37-.4-.778-.892l3.759-3.119a5.119,5.119,0,0,1,2.81-.844h39.91c.99,0,1.451.377,1.029.844l-2.82,3.119A4.113,4.113,0,0,1,289.706,339.068Z" transform="translate(-237.295 -319.379)"/><path class="p" d="M300.6,339.068H284.791c-1.022,0-1.506-.4-1.081-.892l2.7-3.119a3.819,3.819,0,0,1,2.521-.844h15.294c.99,0,1.516.377,1.172.844l-2.287,3.119A3.516,3.516,0,0,1,300.6,339.068Z" transform="translate(-222.746 -319.379)"/><path class="p" d="M318.774,339.068H302.965c-1.024,0-1.575-.4-1.234-.892l2.162-3.119a3.269,3.269,0,0,1,2.378-.844h15.294c.989,0,1.58.377,1.317.844l-1.754,3.119A2.992,2.992,0,0,1,318.774,339.068Z" transform="translate(-215.475 -319.379)"/><path class="p" d="M336.95,339.068H321.141c-1.024,0-1.643-.4-1.387-.892l1.631-3.119a2.776,2.776,0,0,1,2.234-.844h15.294c.989,0,1.643.377,1.461.844l-1.223,3.119C338.96,338.667,337.973,339.068,336.95,339.068Z" transform="translate(-208.208 -319.379)"/><path class="p" d="M355.129,339.068H339.321c-1.024,0-1.712-.4-1.54-.892l1.1-3.119c.164-.467,1.1-.844,2.089-.844h15.294c.99,0,1.708.377,1.6.844l-.69,3.119C357.071,338.667,356.153,339.068,355.129,339.068Z" transform="translate(-200.944 -319.379)"/><path class="p" d="M373.312,339.068H357.5c-1.022,0-1.779-.4-1.69-.892l.565-3.119c.086-.467.956-.844,1.946-.844h15.294c.989,0,1.772.377,1.749.844l-.158,3.119C375.185,338.667,374.335,339.068,373.312,339.068Z" transform="translate(-193.683 -319.379)"/><path class="p" d="M391.5,339.068H375.69c-1.024,0-1.848-.4-1.843-.892l.034-3.119c.006-.467.812-.844,1.8-.844h15.293c.99,0,1.838.377,1.894.844l.374,3.119C393.3,338.667,392.521,339.068,391.5,339.068Z" transform="translate(-186.426 -319.379)"/><path class="p" d="M409.832,339.068H394.023c-1.024,0-1.917-.4-2-.892l-.5-3.119c-.076-.467.667-.844,1.657-.844H408.48c.99,0,1.9.377,2.039.844l.906,3.119C411.568,338.667,410.854,339.068,409.832,339.068Z" transform="translate(-179.315 -319.379)"/><path class="x" d="M428.177,339.068H412.369c-1.024,0-1.986-.4-2.148-.892l-1.031-3.119c-.154-.467.524-.844,1.514-.844H426a2.613,2.613,0,0,1,2.181.844l1.439,3.119C429.845,338.667,429.2,339.068,428.177,339.068Z" transform="translate(-172.218 -319.379)"/><path class="p" d="M446.526,339.068H430.717a2.816,2.816,0,0,1-2.3-.892l-1.562-3.119c-.234-.467.38-.844,1.37-.844h15.293a3.086,3.086,0,0,1,2.326.844l1.97,3.119C448.126,338.667,447.55,339.068,446.526,339.068Z" transform="translate(-165.123 -319.379)"/><path class="p" d="M464.879,339.068H449.069a3.32,3.32,0,0,1-2.451-.892l-2.095-3.119c-.314-.467.236-.844,1.224-.844h15.294a3.611,3.611,0,0,1,2.469.844l2.5,3.119C466.41,338.667,465.9,339.068,464.879,339.068Z" transform="translate(-158.032 -319.379)"/><path class="x" d="M520.462,339.068H467.425a3.893,3.893,0,0,1-2.6-.892l-2.626-3.119c-.394-.467.091-.844,1.081-.844h51.31a5.2,5.2,0,0,1,2.826.844l3.814,3.119C521.825,338.667,521.486,339.068,520.462,339.068Z" transform="translate(-150.943 -319.379)"/></g></g><g transform="translate(90.134 33.727)"><rect class="y" width="230.678" height="130.706" transform="translate(27.056) rotate(11.946)"/><rect class="i" width="51.507" height="113.119" transform="translate(36.337 11.296) rotate(11.946)"/><rect class="i" width="142.628" height="12.87" transform="translate(99.306 28.5) rotate(11.946)"/><rect class="i" width="142.628" height="12.871" transform="matrix(0.978, 0.207, -0.207, 0.978, 94.565, 50.904)"/><rect class="i" width="142.628" height="12.87" transform="matrix(0.978, 0.207, -0.207, 0.978, 89.716, 73.824)"/><rect class="i" width="142.628" height="12.871" transform="translate(84.541 98.283) rotate(11.946)"/></g><g transform="translate(216.404 10.054)"><g transform="translate(238.244 414.044)"><path class="f" d="M547.777,385.569l2.283,9.582s15.672,20.355,20.505,19.36c3.168-.652-.725-5.962-6.686-21.424l-1.251-6.386Z" transform="translate(-547.777 -385.569)"/><g transform="translate(1.986 7.279)"><path class="f" d="M570.633,409.417a.837.837,0,0,1-.125.287,1.738,1.738,0,0,1-.658.616,2.579,2.579,0,0,1-1.4.306,3.7,3.7,0,0,1-1.774-.651,76.143,76.143,0,0,1-7.9-7.362,100.757,100.757,0,0,1-7-8.207c-.834-1.1-1.489-2.007-1.929-2.64l-.5-.736a1.27,1.27,0,0,1-.157-.269,1.226,1.226,0,0,1,.208.233l.544.7,2.005,2.576c1.715,2.157,4.154,5.085,7.056,8.13a87.99,87.99,0,0,0,7.794,7.391,2.9,2.9,0,0,0,2.994.421A2.1,2.1,0,0,0,570.633,409.417Z" transform="translate(-549.193 -390.76)"/></g><g transform="translate(14.469 19.229)"><path class="f" d="M564.833,399.445c-.008.053-.5-.045-1.266.066a7.494,7.494,0,0,0-2.821,1.07,5.774,5.774,0,0,0-2.116,2.112c-.37.684-.473,1.171-.524,1.157a2.691,2.691,0,0,1,.329-1.255,5.411,5.411,0,0,1,2.148-2.276,6.706,6.706,0,0,1,2.96-1.025A2.459,2.459,0,0,1,564.833,399.445Z" transform="translate(-558.095 -399.282)"/></g><g transform="translate(1.178 4.965)"><path class="f" d="M553.808,398.759c-.053-.014.164-.686.289-1.8a7.379,7.379,0,0,0-.787-4.2,6.936,6.936,0,0,0-2.994-3.023,12.077,12.077,0,0,0-1.7-.618,1.363,1.363,0,0,1,.5.025,5.213,5.213,0,0,1,1.3.4,6.727,6.727,0,0,1,3.175,3.081,7.122,7.122,0,0,1,.729,4.365A8.224,8.224,0,0,1,554,398.3,1.41,1.41,0,0,1,553.808,398.759Z" transform="translate(-548.617 -389.109)"/></g><g transform="translate(0.988 1.625)"><path class="f" d="M548.492,386.728a9.66,9.66,0,0,1,.868,3c.286,1.7.595,3.043.526,3.068a9.894,9.894,0,0,1-.829-3.012C548.766,388.094,548.416,386.755,548.492,386.728Z" transform="translate(-548.482 -386.728)"/></g><g transform="translate(12.552 8.742)"><path class="f" d="M560.556,391.93c-.007.093-.895.065-1.943.311s-1.837.651-1.882.572a4.582,4.582,0,0,1,3.825-.883Z" transform="translate(-556.728 -391.803)"/></g><g transform="translate(13.518 10.338)"><path class="f" d="M560.6,393.115c-.013.09-.755.013-1.625.226s-1.5.6-1.554.529a3.107,3.107,0,0,1,3.179-.754Z" transform="translate(-557.418 -392.941)"/></g><g transform="translate(14.707 12.259)"><path class="f" d="M561.511,394.624a8.24,8.24,0,0,0-1.69.062,8.331,8.331,0,0,0-1.549.673,2.526,2.526,0,0,1,3.239-.735Z" transform="translate(-558.265 -394.311)"/></g><g transform="translate(9.576 4.224)"><path class="f" d="M560.33,392.539a1.59,1.59,0,0,1-.524-.059,10.4,10.4,0,0,1-1.388-.374,12.4,12.4,0,0,1-3.029-1.537,1.579,1.579,0,0,1-.782-1.2.925.925,0,0,1,1.195-.749,2.494,2.494,0,0,1,1.092.732,19.6,19.6,0,0,1,1.44,1.569c.384.47.672.867.86,1.148a1.677,1.677,0,0,1,.262.457c-.038.028-.487-.569-1.287-1.463-.4-.447-.895-.965-1.471-1.507a2.28,2.28,0,0,0-.963-.642c-.355-.09-.815.1-.82.471s.335.708.652.944c.346.245.7.468,1.039.666a14.161,14.161,0,0,0,1.889.91C559.609,392.336,560.341,392.489,560.33,392.539Z" transform="translate(-554.606 -388.581)"/></g><g transform="translate(14.456 2.815)"><path class="f" d="M558.109,392.744a1.409,1.409,0,0,1-.018-.48c.01-.307.029-.752.1-1.3a6.823,6.823,0,0,1,.492-1.893,4.075,4.075,0,0,1,.617-1.005,1.052,1.052,0,0,1,1.254-.4,1.205,1.205,0,0,1,.435,1.248,4.441,4.441,0,0,1-.342,1.127,5.75,5.75,0,0,1-1.12,1.608,7.012,7.012,0,0,1-1,.851,1.285,1.285,0,0,1-.416.24c-.034-.042.531-.432,1.255-1.238a6.05,6.05,0,0,0,1.019-1.576,4.278,4.278,0,0,0,.3-1.049c.045-.353,0-.789-.283-.942s-.641.059-.881.33a3.918,3.918,0,0,0-.583.92A7.311,7.311,0,0,0,558.4,391,15.205,15.205,0,0,1,558.109,392.744Z" transform="translate(-558.086 -387.577)"/></g><g class="z" transform="translate(1.178 4.977)"><path class="f" d="M549.722,393.723l-1.105-4.6s3.841.711,4.838,3.584a12.062,12.062,0,0,1,.747,4.921l8.349,8.99s2.095-4.093,5.887-3.109c0,0,2.984,6.563,2.893,8.207-.1,1.807-2.005,1.447-2.685,1.139a33.758,33.758,0,0,1-7.475-5.9C556.747,402.362,551.863,396.543,549.722,393.723Z" transform="translate(-548.617 -389.118)"/></g></g><g transform="translate(144.149 405.815)"><g transform="translate(0.069)"><path class="f" d="M496.84,392.771l-.074-12.78,23.939-.29.3,18.7-1.482.114c-6.6.446-33.6,1.806-38.028.522C476.557,397.6,496.84,392.771,496.84,392.771Z" transform="translate(-480.724 -379.701)"/><g class="z" transform="translate(31.605 11.647)"><path class="f" d="M503.262,394.974a8.307,8.307,0,0,1,2.992-5.141,8.069,8.069,0,0,1,5.574-1.809l.087,6.69Z" transform="translate(-503.262 -388.007)"/></g></g><g transform="translate(0 15.782)"><path class="aa" d="M486.953,390.956s-7.1,2.143-6.2,3.307,28.233.816,40.276-.393l-.045-.534-31.876.677S488.347,391,486.953,390.956Z" transform="translate(-480.674 -390.956)"/></g><g transform="translate(0.066 18.132)"><path class="f" d="M521.341,392.642a2.253,2.253,0,0,1-.411.049l-1.181.087-4.348.243c-3.674.18-8.751.359-14.362.435s-10.694.032-14.37-.048l-4.353-.125c-.439-.021-.829-.039-1.183-.055a2.171,2.171,0,0,1-.412-.039,2.375,2.375,0,0,1,.414-.02h1.183l4.354.034c3.675.027,8.754.038,14.363-.036s10.684-.224,14.358-.351l4.351-.15,1.184-.032A2.231,2.231,0,0,1,521.341,392.642Z" transform="translate(-480.721 -392.632)"/></g><g transform="translate(6.1 15.49)"><path class="f" d="M487.37,394.468a6.314,6.314,0,0,0-2.343-3.713,3.866,3.866,0,0,1,2.343,3.713Z" transform="translate(-485.025 -390.747)"/></g><g transform="translate(14.162 13.558)"><path class="f" d="M492.074,391.349c-.066.045-.409-.363-.766-.909s-.59-1.024-.523-1.067.409.363.766.909S492.141,391.305,492.074,391.349Z" transform="translate(-490.774 -389.37)"/></g><g transform="translate(15.871 13.157)"><path class="f" d="M493.509,390.415c-.052.06-.433-.186-.85-.552s-.712-.71-.66-.77.433.186.851.551S493.562,390.355,493.509,390.415Z" transform="translate(-491.993 -389.084)"/></g><g transform="translate(16.084 12.096)"><path class="f" d="M494.646,388.445a5.489,5.489,0,0,1-2.5.059,5.49,5.49,0,0,1,2.5-.059Z" transform="translate(-492.144 -388.327)"/></g><g transform="translate(16.155 10.591)"><path class="f" d="M495.025,387.276a3.514,3.514,0,0,1-2.83.25,102.138,102.138,0,0,0,2.83-.25Z" transform="translate(-492.195 -387.254)"/></g><g transform="translate(10.096 11.346)"><path class="f" d="M492.4,389.906a4.433,4.433,0,0,1-1.538.01,9.139,9.139,0,0,1-1.642-.341,4.472,4.472,0,0,1-.942-.374.835.835,0,0,1-.387-.473.609.609,0,0,1,.226-.618,2.821,2.821,0,0,1,3.5.781,2.751,2.751,0,0,1,.515,1.019c.066.264.063.412.045.415a4.3,4.3,0,0,0-.717-1.3,2.773,2.773,0,0,0-1.325-.837,2.381,2.381,0,0,0-1.831.149c-.243.184-.143.47.13.628a4.552,4.552,0,0,0,.869.358,10.54,10.54,0,0,0,1.589.393C491.816,389.864,492.4,389.859,492.4,389.906Z" transform="translate(-487.874 -387.792)"/></g><g transform="translate(14.025 10.544)"><path class="f" d="M490.878,390.218a1.513,1.513,0,0,1-.191-1.067,2.526,2.526,0,0,1,.405-1.129,1.551,1.551,0,0,1,1.27-.8.614.614,0,0,1,.484.705,1.7,1.7,0,0,1-.252.69,4.745,4.745,0,0,1-.715.941,2.239,2.239,0,0,1-.872.634c-.028-.038.3-.28.721-.773a5.414,5.414,0,0,0,.632-.931c.208-.328.344-.914-.043-.979-.384-.032-.773.356-1,.666a2.5,2.5,0,0,0-.422,1.005A5.459,5.459,0,0,0,490.878,390.218Z" transform="translate(-490.676 -387.221)"/></g><g transform="translate(31.689 11.454)"><path class="f" d="M511.7,388.015c0,.053-.686-.057-1.767.084a7.5,7.5,0,0,0-6.206,5.078c-.352,1.031-.379,1.721-.432,1.715a1.347,1.347,0,0,1-.007-.484,6.3,6.3,0,0,1,.244-1.294,7.279,7.279,0,0,1,6.379-5.219,6.286,6.286,0,0,1,1.317.018A1.337,1.337,0,0,1,511.7,388.015Z" transform="translate(-503.273 -387.869)"/></g><g transform="translate(37.44 1.669)"><path class="f" d="M507.44,380.891a41.357,41.357,0,0,1,.271,4.914,42.011,42.011,0,0,1-.02,4.922,83.422,83.422,0,0,1-.251-9.835Z" transform="translate(-507.374 -380.891)"/></g><g transform="translate(21.638 16.292)"><path class="f" d="M503.1,391.345a19.677,19.677,0,0,1-6.994.156c.006-.084,1.57-.008,3.5-.055S503.088,391.261,503.1,391.345Z" transform="translate(-496.105 -391.32)"/></g><g transform="translate(32.653 16.242)"><path class="f" d="M504.63,391.293c.059.059-.123.334-.279.694s-.238.68-.32.676-.129-.377.055-.792S504.578,391.235,504.63,391.293Z" transform="translate(-503.96 -391.284)"/></g><g transform="translate(34.166 14.017)"><path class="f" d="M505.936,389.708c.057.056-.094.307-.338.561s-.489.415-.547.359.094-.306.338-.561S505.879,389.652,505.936,389.708Z" transform="translate(-505.039 -389.697)"/></g><g transform="translate(36.22 12.859)"><path class="f" d="M507.864,389c-.015.081-.334.083-.683.212s-.6.318-.665.265.132-.387.568-.538S507.888,388.928,507.864,389Z" transform="translate(-506.504 -388.871)"/></g><g transform="translate(38.656 12.44)"><path class="f" d="M508.96,388.625c.031.076-.105.2-.3.279s-.383.084-.412.01.107-.2.3-.279S508.931,388.552,508.96,388.625Z" transform="translate(-508.241 -388.573)"/></g></g><g transform="translate(147.442 165.075)"><path class="ab" d="M483.022,216.112,490.8,456.324l37.277.783-6.19-207.877L563.816,458.7h35.441L551.923,208.02" transform="translate(-483.022 -208.02)"/></g><path class="ac" d="M428.76,188.468S451.385,218.2,465.216,211.5s38.639-29.495,38.639-29.495l-17.394-17.486-23.08,25.748L433.894,176Z" transform="translate(-357.408 -60.442)"/><g transform="translate(159.348)"><g transform="translate(4.585 9.352)"><g transform="translate(0 2.336)"><path class="ac" d="M527.449,158.879l-23.015-1.837c-.143-2.688.049-13.083.049-13.083s-9.576-1.489-9.694-11.062,1.542-31.559,1.542-31.559h0a33.277,33.277,0,0,1,33.434,4.2l1.419,1.092Z" transform="translate(-494.783 -98.634)"/><g transform="translate(9.662 41.64)"><path class="ad" d="M501.7,131.877a22.261,22.261,0,0,0,12.481-3.548s-2.95,6.889-12.5,6.027Z" transform="translate(-501.673 -128.329)"/></g></g><g transform="translate(1.351)"><path class="ae" d="M495.746,104.417s5.6,3.242,13.442.028c5.143-2.109,11.018-2.891,12.218-1.8s1.092,6.225,5.9,8.08c0,0-1.059,9.73,2.855,9.67s2.6-15.348,2.6-15.348l-9.169-5.35-10.238-2.73-9.884.655-7.722,1.513Z" transform="translate(-495.746 -96.968)"/></g><g transform="translate(34.848 19.95)"><path class="ac" d="M520.007,111.5c.164-.07,6.579-1.945,6.369,4.6s-6.736,4.985-6.742,4.8S520.007,111.5,520.007,111.5Z" transform="translate(-519.634 -111.195)"/><g transform="translate(2.072 2.143)"><path class="ad" d="M521.118,117.864c.03-.02.112.083.3.178a1.148,1.148,0,0,0,.853.045,2.821,2.821,0,0,0,1.385-2.49,3.75,3.75,0,0,0-.266-1.642,1.32,1.32,0,0,0-.83-.9.58.58,0,0,0-.683.292c-.093.179-.056.311-.091.321-.018.017-.137-.114-.076-.383a.728.728,0,0,1,.271-.4.861.861,0,0,1,.637-.147,1.606,1.606,0,0,1,1.158,1.053,3.875,3.875,0,0,1,.337,1.837,2.96,2.96,0,0,1-1.753,2.774,1.222,1.222,0,0,1-1.038-.206C521.125,118.022,521.1,117.875,521.118,117.864Z" transform="translate(-521.111 -112.723)"/></g></g></g><path class="f" d="M524.964,106.7a22.411,22.411,0,0,0,3.8,4.409,7.552,7.552,0,0,0,5.369,1.885,4.608,4.608,0,0,0,4.138-3.521c.327-1.918-1.314-4.044-3.253-3.876a2.031,2.031,0,1,0-.716-3.769c1.677-.094,2.2-2.67,1.028-3.874s-3.113-1.227-4.738-.8a29.11,29.11,0,0,1-4.843,1.352c-2.626.219-5.11-1.185-7.2-2.79s-4.029-3.49-6.457-4.514a14.69,14.69,0,0,0-9.52-.206,15.27,15.27,0,0,0-6.98,3.825,8.956,8.956,0,0,0-2.65,7.31,6.393,6.393,0,0,0,5.151,5.453,17.317,17.317,0,0,0,11.245-1.6c5.338-2.983,15.545-1.174,15.545-1.174Z" transform="translate(-490.967 -90.299)"/><g transform="translate(1.995 16.449)"><path class="f" d="M493.142,106.278c-.088.01-.23-.332-.2-.917a3.607,3.607,0,0,1,2.791-3.273c.574-.119.934-.034.938.055.031.194-1.346.391-2.345,1.572S493.339,106.278,493.142,106.278Z" transform="translate(-492.936 -102.029)"/></g><g transform="translate(0 10.994)"><path class="f" d="M491.566,98.14c.2-.055.693,1.75,2.2,3.379,1.477,1.657,3.225,2.321,3.151,2.516-.015.181-2.039-.233-3.667-2.047C491.6,100.193,491.385,98.139,491.566,98.14Z" transform="translate(-491.513 -98.139)"/></g></g><g transform="translate(124.621 66.382)"><path class="af" d="M564.782,260.273l-76.961-4.193c-.191-7.934,3.6-68.106,3.6-68.106l-3.981,7.467-20.689-18.452,18.076-24.431A35.8,35.8,0,0,1,508.772,138.4c2.807-.383,4.941-.568,6.327-.742a40.72,40.72,0,0,0,24.539-.015h0a33.436,33.436,0,0,1,10.159,1.948,41.832,41.832,0,0,1,16.213,10.494l0,0,21.649,36.383-26.254,16.514-3.786-11.445Z" transform="translate(-466.748 -137.638)"/><g transform="translate(85.978 7.081)"><path class="ag" d="M531.448,142.694a6.17,6.17,0,0,0-1.42,1.066,6.437,6.437,0,0,0-1.474,4.477c.157,4.145.635,9.943,1.164,16.3.548,6.369,1.157,12.124,1.606,16.29.209,1.979.386,3.635.523,4.935a9.093,9.093,0,0,1,.109,1.822,9.207,9.207,0,0,1-.379-1.785c-.2-1.157-.454-2.834-.743-4.911-.575-4.155-1.261-9.911-1.812-16.29-.529-6.384-.93-12.142-.961-16.376a6.509,6.509,0,0,1,1.771-4.653,3.6,3.6,0,0,1,1.151-.76A.956.956,0,0,1,531.448,142.694Z" transform="translate(-528.062 -142.688)"/></g><g transform="translate(23.985 22.351)"><path class="ag" d="M484.752,153.577a27.011,27.011,0,0,1,.135,4.358c-.006,2.688-.063,6.4-.168,10.494s-.24,7.806-.372,10.49a26.88,26.88,0,0,1-.359,4.346,26.828,26.828,0,0,1-.135-4.35c.006-2.688.063-6.4.168-10.5s.24-7.812.373-10.5A26.971,26.971,0,0,1,484.752,153.577Z" transform="translate(-483.853 -153.577)"/></g></g><g transform="translate(0 32.534)"><path class="f" d="M427.047,154.335c3.452-6.192,1.92-14.369-2.559-19.866s-11.393-8.569-18.382-9.765c-4.3-.735-8.7-.837-12.919-1.945s-8.388-3.454-10.323-7.359a20.848,20.848,0,0,0,1.939,14.062,19.545,19.545,0,0,1-6.857-2.863c.018,8.684,2.182,17.539,7.261,24.584s13.295,12.055,21.979,12.152,17.476-5.288,20.326-13.492" transform="translate(-377.848 -112.736)"/><path class="ah" d="M377.974,123.952c-.339,4.2.188,12.352,1.793,16.247a11.2,11.2,0,0,0,2.587,4.069,5.237,5.237,0,0,0,4.452,1.449c2.495-.509,4.131-3.238,6.655-3.577,3.018-.4,5.486,2.781,8.529,2.865,2.486.069,4.585-2.016,5.5-4.327s.963-4.859,1.31-7.321,1.1-5.047,3.026-6.626a72.045,72.045,0,0,0-16.161-3.858c-9.189-1.1-12.864-9.373-12.864-9.373s-2.748,9.929,2.026,16.726Z" transform="translate(-377.876 -113.5)"/></g><path class="f" d="M411.163,162.786,619.915,315.433a13.334,13.334,0,0,0,18.549-2.778h0a13.335,13.335,0,0,0-2.841-18.773L426.07,141.646Z" transform="translate(-364.486 -69.644)"/><path class="ac" d="M576.686,173.79l-21.421,13.474,3.47,9.1L510.8,216.092l-13.121.6-9.678-1.8s-.853,1.125.777,2.861c.9.962,3.213,1.819,5.092,2.391l-7.231,6.55,9.394,11.9,32.14-7.77c17.79-3.022,60.165-11.515,60.324-23.887C588.637,195.779,576.686,173.79,576.686,173.79Z" transform="translate(-334.126 -56.714)"/><path class="ac" d="M429.51,158.758c.495-1.464,1.7-2.506,3.013-1.82h0a2.346,2.346,0,0,1,.432,2.26l-4.2,13.662.006.011,3.974-9.657c.495-1.463,1.822-2.345,2.736-1.551a2.428,2.428,0,0,1,.321,2.217l-3.625,11.339,2.949-7.088c.617-1.618,1.341-2.05,2.162-1.7s.847,1.555.644,2.192l-2.5,8.374c.536,1.606,2.385,6.669.607,9.52-.09.144.177.613.171.773l.843.965-5.446,5.152c-2.819-2.51-5.425-13.031-6.24-17.023a12.643,12.643,0,0,1,.3-6.825Z" transform="translate(-358.901 -63.58)"/><path class="ai" d="M429.218,144.194,418,135.314l-14.665,21.422,10.971,8.6Z" transform="translate(-367.633 -72.191)"/></g></g></g></g></svg>